<svg version="1.1" xmlns="http://www.w3.org/2000/svg" viewBox="-3882.0155370717075 -9157.891098580647 19463.03096167126 19462.98173338377"><desc>Created with Snap</desc><defs><linearGradient x1="-3882.0155370717075" y1="-9157.891098580647" x2="15581.01542459955" y2="-9157.891098580647" gradientUnits="userSpaceOnUse" id="linearGradientSkuk2y1la2dl"><stop offset="0%" stop-color="#081c4f"></stop><stop offset="100%" stop-color="#157c79"></stop></linearGradient></defs><g><rect x="-3882.0155370717075" y="-9157.891098580647" width="19463.03096167126" height="19462.98173338377" fill="url('#linearGradientSkuk2y1la2dl')"></rect><g transform="matrix(47.4445,0,0,47.4445,-3639.3974,-8915.2972)">
<g id="gSkuk2y1la2d4">
	<path d="M398.63879,200.00052l-36.78085-67.04428l-21.39929-73.41541l-73.41592-21.39961L200.50656,1.63915L200,1.36172
		l-67.04344,36.78001L59.54134,59.54083L38.14186,132.9552L1.63864,199.49394l-0.27743,0.50658l36.78072,67.04453l21.39942,73.41412
		l73.41489,21.39935l66.5372,36.50232L200,398.63828l67.04172-36.77924l73.41693-21.39987l21.39865-73.41309l36.50406-66.539
		L398.63879,200.00052z M365.49286,247.05289l-8.71042-29.88306l9.1412-16.66275l0.27744-0.50656l-9.4187-17.16881l8.71066-29.88382
		L379.20798,200L365.49286,247.05289z M380.30396,203.76021l4.81308,16.51221l-17.91296,32.6512l-0.61517-2.11052
		L380.30396,203.76021z M345.23193,316.56244l-15.07812,8.27203l23.57217-42.96695l1.92709-1.05731L345.23193,316.56244z
		 M326.71875,326.71893l-42.96701,23.57205l14.97098-27.28934l18.79968-5.47977l5.47961-18.79922l27.28915-14.97067
		L326.71875,326.71893z M324.83429,330.15393l-8.27231,15.07858l-35.75223,10.42108l1.05783-1.92813L324.83429,330.15393z
		 M200,379.20844l-47.05251-13.71506l29.88313-8.71054l16.66281,9.14133L200,366.2016l16.99451-9.32321l30.00282,8.63116
		L200,379.20844z M250.78233,366.59845l2.12843,0.61215l-32.63995,17.90656l-16.51068-4.81262L250.78233,366.59845z
		 M196.23987,380.30453l-16.51082,4.81262l-32.6515-17.91272l2.10976-0.61496L196.23987,380.30453z M73.28035,326.71893
		l-23.57236-42.96747l27.28947,14.97095l5.5274,18.96286l0.16235,0.55588l18.97235,5.45792l14.58871,26.59244L73.28035,326.71893z
		 M118.13261,353.72623l1.05744,1.92737l-35.75327-10.4216l-8.27197-15.07806L118.13261,353.72623z M44.34647,280.81021
		l1.92705,1.05704l23.57198,42.96747l-15.07735-8.27151L44.34647,280.81021z M20.79113,200l13.71512-47.05161l8.71046,29.8828
		l-9.14138,16.66275l-0.27743,0.50658l9.41875,17.16853l-8.71047,29.88255L20.79113,200z M33.41014,250.8118l-0.61529,2.11053
		l-17.9126-32.65094l4.81289-16.51118L33.41014,250.8118z M19.69515,196.23979l-4.8127-16.51067l17.91266-32.6512l0.6151,2.11028
		L19.69515,196.23979z M54.76814,83.43679l15.07735-8.27152l-23.57191,42.96748l-1.92711,1.05706L54.76814,83.43679z
		 M73.28048,73.28106l42.96799-23.57255l-14.97126,27.28985L82.4776,82.47812l-5.47981,18.79922l-27.28947,14.97119
		L73.28048,73.28106z M75.16482,69.84606l8.27197-15.07806l35.75333-10.4216l-1.05745,1.92762L75.16482,69.84606z
		 M247.05199,34.50637l-29.88293,8.71053l-16.66249-9.14106L200,33.79842l-17.16881,9.41874l-29.88318-8.71053l47.05251-13.71506
		L247.05199,34.50637z M326.71863,73.28106l23.57224,42.96696l-27.28891-14.97094l-5.47955-18.79896l-18.79993-5.48001
		l-14.97083-27.28909L326.71863,73.28106z M281.86737,46.27402l-1.05762-1.92762l35.75223,10.42109l8.27216,15.07832
		L281.86737,46.27402z M355.65308,119.1898l-1.92773-1.05783l-23.57178-42.96671l15.07837,8.27229L355.65308,119.1898z
		 M307.3237,307.32376l13.06888-7.16949l-4.56763,15.67017l-15.67062,4.56781L307.3237,307.32376z M297.29614,321.22531
		l-32.67236,9.5238l39.26505-21.54089L297.29614,321.22531z M309.20792,303.88928l21.54135-39.26608l-9.52362,32.673
		L309.20792,303.88928z M305.77304,305.7735l-50.48621,27.69702l-55.65616,16.22321l-53.29005-15.33029l-52.11431-28.59018
		l-27.69849-50.4884l-16.11463-55.28459l16.11527-55.28561L94.2267,94.2265l50.48685-27.69727l55.28619-16.1156l55.28697,16.1156
		l50.48666,27.69727l27.69757,50.48788l16.1149,55.28613l-16.11469,55.2851L305.77304,305.7735z M199.63536,351.88467
		l14.48891,4.16812L200,363.8013l-14.3116-7.85126L199.63536,351.88467z M183.07909,354.51843l-28.34781-15.55173l41.11916,11.82904
		L183.07909,354.51843z M203.4156,350.78265l43.34534-12.63461l-30.01869,16.46829L203.4156,350.78265z M92.67604,307.32376
		l7.5574,13.7757l-15.85081-4.55988l-4.77622-16.38583L92.67604,307.32376z M78.77334,297.29572l-9.52407-32.67432
		l21.54237,39.26764L78.77334,297.29572z M96.11072,309.20822l41.02835,22.5083l-34.05465-9.79688L96.11072,309.20822z
		 M48.22117,200l-4.17172,14.31178l-7.85126-14.31126l7.85152-14.3118L48.22117,200z M45.4811,183.07961l16.36997-29.83888
		l-12.53392,42.99933L45.4811,183.07961z M49.31721,203.76021l12.53405,43.00035l-16.37029-29.83939L49.31721,203.76021z
		 M92.67611,92.67624l-13.06875,7.1695l4.5677-15.67017l15.67049-4.56783L92.67611,92.67624z M102.70379,78.77468l32.67283-9.5238
		L96.11097,90.79177L102.70379,78.77468z M90.79183,96.11097l-21.54147,39.26585l9.52388-32.67303L90.79183,96.11097z
		 M199.99974,48.22169l-14.31126-4.17172L200,36.1987l14.31134,7.85127L199.99974,48.22169z M216.92059,45.4813l29.84023,16.37068
		l-43.00093-12.53444L216.92059,45.4813z M196.23961,49.31754l-43.00003,12.53418l29.83957-16.37016L196.23961,49.31754z
		 M307.32306,92.67572l-7.16907-13.06798l15.67096,4.56783l4.5675,15.66991L307.32306,92.67572z M321.22559,102.70379
		l9.52411,32.67481l-21.5423-39.26814L321.22559,102.70379z M303.88904,90.79177l-39.26431-21.54038l32.67175,9.52329
		L303.88904,90.79177z M350.68188,203.76071l3.83612,13.16046l-16.3696,29.83861L350.68188,203.76071z M351.77792,200.00052
		l4.1716-14.31154l7.85126,14.31154l-7.85132,14.31126L351.77792,200.00052z M350.68195,196.24031l-12.53366-42.99983
		l16.36978,29.83913L350.68195,196.24031z M335.42703,143.90469l-11.59195-39.76932l28.34024,15.54764l7.72693,14.08444
		l4.49475,15.42023l-9.04614,31.03465L335.42703,143.90469z M295.86496,76.16531l-39.76633-11.59144l-36.32025-19.92537
		l31.03368-9.04602l15.4185,4.49411l14.08688,7.72822L295.86496,76.16531z M149.18794,35.60274l31.03394,9.04601l-36.31905,19.92461
		l-39.76746,11.59169l15.54815-28.34101l14.08433-7.72668L149.18794,35.60274z M76.16473,104.13538l-11.59176,39.76752
		l-19.92486,36.31892l-9.04582-31.03362l4.49501-15.42075l7.72655-14.08393L76.16473,104.13538z M44.64811,219.77818
		l19.92461,36.31865l11.59162,39.76755l-28.34088-15.54791l-7.72585-14.08264l-4.49539-15.42227L44.64811,219.77818z
		 M104.51055,324.51929l41.01929,11.80026l34.69145,19.03195l-31.03387,9.04602l-15.41893-4.49463l-14.08516-7.72693
		L104.51055,324.51929z M219.61263,355.4422l36.48494-20.01581l39.767-11.59143l-15.54788,28.34048l-14.08612,7.72797
		l-15.45279,4.50412L219.61263,355.4422z M323.83514,295.86462l11.59149-39.76727l19.92435-36.31815l9.04584,31.03363
		l-4.49493,15.42099l-7.72617,14.08316L323.83514,295.86462z M366.58908,149.18768l0.61511-2.11052l17.91266,32.65092
		l-4.8129,16.5117L366.58908,149.18768z M365.77274,144.46803l-0.27963,0.95944l-0.91373-3.13469L365.77274,144.46803z
		 M355.6098,121.56722l0.8764,0.48062l0.69449,2.38281L355.6098,121.56722z M344.39874,80.57926l-16.12967-8.84898
		l-8.84879-16.12947l19.34091,5.63748L344.39874,80.57926z M277.95215,43.51334l0.48096,0.87673l-2.86459-1.57159
		L277.95215,43.51334z M254.57227,34.50637l0.9588-0.27948l2.17392,1.19243L254.57227,34.50637z M252.92188,32.7953
		l-2.10962,0.61497l-68.47394-19.95903L200,3.762L252.92188,32.7953z M179.72905,14.88283l16.51138,4.81264l-53.94701,15.72462
		L179.72905,14.88283z M121.56773,44.38956l0.48069-0.87621l2.3823-0.69435L121.56773,44.38956z M61.2388,61.23829l19.33969-5.63722
		l-8.8486,16.12947l-16.12863,8.84821L61.2388,61.23829z M43.51334,122.0481l0.87577-0.48037l-1.56986,2.86138L43.51334,122.0481z
		 M34.50618,145.42799l-0.27961-0.95944l1.1934-2.17526L34.50618,145.42799z M13.45098,182.3385L18.59911,200l-5.14832,17.66202
		l-9.6893-17.6615L13.45098,182.3385z M34.22631,255.53171l0.27981-0.95996l0.91423,3.13623L34.22631,255.53171z
		 M44.38905,278.43225l-0.8757-0.48035l-0.69403-2.38101L44.38905,278.43225z M55.60126,319.42126l16.12863,8.84821l8.8486,16.12946
		l-19.33969-5.63721L55.60126,319.42126z M122.04836,356.48691l-0.48068-0.87622l2.86273,1.57031L122.04836,356.48691z
		 M145.42715,365.49362l-0.95886,0.27948l-2.1741-1.19293L145.42715,365.49362z M182.33832,386.54877L200,381.40063
		l17.66156,5.14813L200,396.23801L182.33832,386.54877z M255.52882,365.77438l-0.96606-0.27792l3.14223-0.91577L255.52882,365.77438
		z M278.43253,355.60992l-0.48108,0.87698l-2.38385,0.69485L278.43253,355.60992z M338.7612,338.76172l-19.34091,5.63748
		l8.84906-16.12973l16.12939-8.84872L338.7612,338.76172z M356.48621,277.95215l-0.8757,0.48038l1.56961-2.86111
		L356.48621,277.95215z M365.49286,254.57329l0.27972,0.95944l-1.19357,2.17577L365.49286,254.57329z M386.54849,217.66304
		L381.39999,200l5.14832-17.66252l9.69022,17.66304L386.54849,217.66304z" fill="#ffffff" style=""></path>
</g>


<desc>Created with Snap</desc><defs></defs></g><g><g transform="matrix(1,0,0,-1,0,0)"><path d="M83 -2L38 0L38 233Q43 308 46 366Q49 424 57 466Q65 508 83 536Q101 565 137 582Q202 614 376 614Q451 614 503 599Q555 585 580 572Q637 544 637 494Q637 444 608 403Q580 363 534 333Q489 304 432 285Q375 266 318 254Q216 234 122 234L118 10Q118 -2 83 -2ZM121 347Q121 297 164 297Q170 297 185 297Q200 298 237 300Q275 303 317 310Q359 318 401 330Q444 342 478 360Q555 402 555 467Q540 532 436 550Q405 556 380 556Q356 556 322 553Q289 551 245 538Q201 525 171 503Q141 481 138 452Q137 440 133 424Q121 373 121 347ZM1171 365Q1129 395 1063 395Q1001 395 948 372Q848 330 811 264Q795 234 795 200Q795 194 795 166Q795 139 805 92Q815 46 815 -2Q794 -3 781 -7Q768 -11 759 -11Q750 -11 743 -3Q737 5 729 28Q728 34 725 62Q722 90 717 130Q713 170 707 217Q702 265 697 311Q686 411 680 458Q680 482 715 482Q736 482 748 464Q760 447 767 424Q774 402 776 380Q779 358 781 349Q913 467 1109 467Q1131 467 1155 466Q1161 467 1170 467Q1179 467 1188 455Q1199 441 1199 421Q1199 371 1171 365ZM1449 70Q1537 70 1714 150Q1725 150 1732 142Q1739 135 1739 125Q1699 57 1586 19Q1473 -19 1375 6Q1264 35 1240 131Q1238 150 1238 182Q1238 214 1254 266Q1271 319 1311 366Q1351 413 1405 440Q1459 467 1520 467Q1578 467 1650 427Q1684 408 1704 384Q1724 360 1724 335Q1724 328 1723 321Q1721 260 1664 244Q1639 237 1606 237L1462 243Q1390 243 1352 212Q1330 195 1321 161Q1346 70 1449 70ZM1627 379Q1605 395 1581 402Q1557 409 1541 409Q1525 409 1489 398Q1453 388 1425 375Q1356 343 1356 308Q1436 301 1476 301Q1587 301 1626 320Q1650 330 1650 345Q1650 363 1627 379ZM2141 258Q2251 258 2251 202Q2251 160 2190 104Q2099 21 1945 -29Q1938 -29 1929 -15Q1921 -1 1916 6Q1912 14 1910 16Q2025 54 2099 108Q2149 144 2149 167Q2149 190 2090 190Q2031 190 1917 162Q1865 164 1827 199Q1794 230 1794 261Q1794 293 1812 319Q1830 346 1860 369Q1890 392 1930 411Q2028 458 2133 458Q2164 458 2193 452Q2217 452 2221 431Q2225 410 2225 362Q2166 389 2092 389Q2000 389 1940 352Q1878 316 1876 258Q1876 230 1917 230L1990 238Q2084 258 2141 258ZM2655 258Q2765 258 2765 202Q2765 160 2704 104Q2613 21 2459 -29Q2452 -29 2443 -15Q2435 -1 2430 6Q2426 14 2424 16Q2539 54 2613 108Q2663 144 2663 167Q2663 190 2604 190Q2545 190 2431 162Q2379 164 2341 199Q2308 230 2308 261Q2308 293 2326 319Q2344 346 2374 369Q2404 392 2444 411Q2542 458 2647 458Q2678 458 2707 452Q2731 452 2735 431Q2739 410 2739 362Q2680 389 2606 389Q2514 389 2454 352Q2392 316 2390 258Q2390 230 2431 230L2504 238Q2598 258 2655 258ZM3293 -2L3248 0L3248 233Q3253 308 3256 366Q3259 424 3267 466Q3275 508 3293 536Q3311 565 3347 582Q3412 614 3586 614Q3661 614 3713 599Q3765 585 3790 572Q3847 544 3847 494Q3847 444 3818 403Q3790 363 3744 333Q3699 304 3642 285Q3585 266 3528 254Q3426 234 3332 234L3328 10Q3328 -2 3293 -2ZM3331 347Q3331 297 3374 297Q3380 297 3395 297Q3410 298 3447 300Q3485 303 3527 310Q3569 318 3611 330Q3654 342 3688 360Q3765 402 3765 467Q3750 532 3646 550Q3615 556 3590 556Q3566 556 3532 553Q3499 551 3455 538Q3411 525 3381 503Q3351 481 3348 452Q3347 440 3343 424Q3331 373 3331 347ZM4283 166Q4208 48 4083 20Q4054 14 4030 14Q4007 14 3991 14Q3976 15 3957 19Q3938 23 3922 32Q3885 53 3885 91Q3881 109 3881 131Q3881 154 3891 191Q3901 228 3927 271Q3954 314 3992 350Q4071 426 4163 448Q4190 454 4212 454Q4235 454 4253 451Q4311 451 4331 372Q4344 322 4346 232Q4349 143 4351 94Q4354 46 4364 6L4305 6Q4301 33 4299 54Q4297 75 4295 93Q4290 135 4283 166ZM4279 321Q4279 379 4222 379Q4215 380 4208 380Q4135 380 4054 310Q4016 278 3989 238Q3949 181 3949 136Q3949 77 4017 66Q4107 68 4189 148Q4224 183 4247 224Q4279 279 4279 321ZM4700 -428L4686 -427Q4656 -427 4622 -431L4584 -431Q4524 -431 4490 -408Q4472 -396 4472 -372L4702 -361Q4808 -358 4808 -247Q4808 -243 4808 -234Q4808 -224 4808 -192L4813 130Q4813 147 4812 158Q4650 7 4500 7Q4487 7 4474 8Q4407 8 4407 67Q4409 113 4434 168Q4459 224 4498 275Q4538 327 4588 368Q4665 431 4737 431Q4821 431 4875 342Q4891 104 4891 4Q4891 -96 4888 -160Q4885 -224 4874 -277Q4864 -330 4847 -361Q4830 -392 4807 -406Q4769 -428 4700 -428ZM4760 358Q4748 362 4726 362Q4705 362 4671 344Q4637 326 4606 297Q4575 269 4548 234Q4482 148 4482 97Q4482 81 4491 73Q4498 69 4508 69Q4519 69 4539 72Q4559 76 4593 90Q4628 105 4665 128Q4702 151 4732 179Q4802 243 4802 304Q4802 341 4760 358ZM5143 70Q5231 70 5408 150Q5419 150 5426 142Q5433 135 5433 125Q5393 57 5280 19Q5167 -19 5069 6Q4958 35 4934 131Q4932 150 4932 182Q4932 214 4948 266Q4965 319 5005 366Q5045 413 5099 440Q5153 467 5214 467Q5272 467 5344 427Q5378 408 5398 384Q5418 360 5418 335Q5418 328 5417 321Q5415 260 5358 244Q5333 237 5300 237L5156 243Q5084 243 5046 212Q5024 195 5015 161Q5040 70 5143 70ZM5321 379Q5299 395 5275 402Q5251 409 5235 409Q5219 409 5183 398Q5147 388 5119 375Q5050 343 5050 308Q5130 301 5170 301Q5281 301 5320 320Q5344 330 5344 345Q5344 363 5321 379ZM6398 555Q6333 619 6254 619Q6179 619 6110 562Q6023 490 5990 376Q5978 335 5978 308Q5978 281 5980 266Q5980 167 6047 114Q6110 65 6208 65Q6342 76 6465 168Q6499 194 6537 218Q6551 218 6565 214Q6580 210 6580 191Q6481 105 6413 67Q6287 -1 6185 -1Q6178 -1 6172 -1Q6061 -1 5982 68Q5898 141 5898 250Q5898 332 5927 407Q5957 482 6008 539Q6060 597 6130 631Q6201 665 6282 665Q6351 665 6372 646Q6398 623 6398 555ZM6646 388Q6644 442 6642 484Q6640 527 6639 547Q6639 568 6623 648Q6632 660 6640 671Q6649 682 6665 682Q6700 682 6719 387Q6729 216 6729 45Q6729 -1 6665 -1L6657 0Q6657 52 6654 133Q6651 214 6649 274Q6648 334 6646 388ZM6816 470L6879 470Q6892 283 6901 37Q6895 6 6853 6Q6842 6 6830 10Q6819 15 6816 23L6816 470ZM6786 606Q6786 641 6827 641Q6854 641 6871 629Q6874 618 6874 607Q6874 597 6866 587Q6858 577 6842 577Q6826 577 6810 584Q6794 592 6786 606ZM7148 70Q7236 70 7413 150Q7424 150 7431 142Q7438 135 7438 125Q7398 57 7285 19Q7172 -19 7074 6Q6963 35 6939 131Q6937 150 6937 182Q6937 214 6953 266Q6970 319 7010 366Q7050 413 7104 440Q7158 467 7219 467Q7277 467 7349 427Q7383 408 7403 384Q7423 360 7423 335Q7423 328 7422 321Q7420 260 7363 244Q7338 237 7305 237L7161 243Q7089 243 7051 212Q7029 195 7020 161Q7045 70 7148 70ZM7326 379Q7304 395 7280 402Q7256 409 7240 409Q7224 409 7188 398Q7152 388 7124 375Q7055 343 7055 308Q7135 301 7175 301Q7286 301 7325 320Q7349 330 7349 345Q7349 363 7326 379ZM7887 158L7888 219Q7888 338 7875 394Q7883 409 7851 409Q7817 409 7763 392Q7709 375 7675 358Q7594 319 7585 282L7585 10L7518 10Q7505 44 7505 201Q7505 341 7510 407Q7516 473 7519 482Q7545 499 7561 499Q7586 499 7586 440Q7586 417 7583 395Q7581 374 7581 366Q7743 485 7832 485Q7933 485 7947 322Q7953 265 7953 164L7952 85Q7952 41 7954 0Q7944 -6 7938 -6Q7935 -5 7925 -3Q7915 -1 7899 0Q7889 40 7888 81Q7887 123 7887 158ZM8161 96L8163 256Q8163 294 8156 321L8001 321L7999 390L8149 390L8149 648Q8152 657 8161 666Q8175 680 8184 680Q8194 680 8201 678Q8208 676 8216 664Q8232 598 8232 465Q8232 432 8235 400Q8267 404 8299 404Q8299 404 8351 404Q8370 404 8386 406L8383 334L8237 338L8242 -7Q8224 -15 8211 -15Q8161 -15 8161 96ZM8474 126Q8474 141 8487 155Q8501 169 8518 169Q8535 169 8544 158Q8553 147 8553 134Q8553 122 8543 111Q8534 101 8526 101Q8518 101 8511 101Q8505 101 8489 106Q8474 111 8474 126ZM8442 318Q8428 322 8428 333Q8428 348 8443 358Q8458 368 8467 369Q8498 365 8506 353Q8515 342 8515 335Q8515 314 8489 308Q8485 306 8474 306Q8464 306 8442 318ZM9101 167L9105 94Q9105 88 9104 72Q9104 56 9092 43Q9081 31 9064 31Q9048 31 9039 32Q9006 32 9006 61Q9006 85 9028 254Q9050 424 9056 473Q9062 522 9066 555Q9071 589 9073 605Q9075 621 9079 637Q9083 653 9091 663Q9106 682 9149 682Q9221 646 9297 478Q9351 358 9369 326Q9387 294 9404 282L9604 630Q9625 645 9636 645Q9668 645 9685 616Q9702 587 9713 545Q9725 504 9733 454Q9742 404 9748 349Q9755 295 9761 243Q9775 118 9782 86Q9790 54 9790 40Q9790 27 9781 14Q9772 2 9756 2Q9740 2 9724 14Q9708 27 9704 45Q9701 64 9697 94Q9694 124 9689 161Q9684 199 9679 240Q9674 282 9669 320Q9664 358 9660 387Q9656 417 9654 432Q9654 452 9653 469Q9652 486 9645 490Q9638 494 9623 480Q9609 467 9583 426Q9527 339 9421 133Q9407 108 9384 122Q9357 137 9338 199L9154 590Q9130 542 9110 272Q9107 239 9106 216Q9101 191 9101 167ZM9877 190Q9877 308 9979 380Q10060 437 10174 449Q10180 449 10202 449Q10224 449 10261 436Q10343 408 10373 337Q10385 309 10385 289Q10385 270 10384 262Q10384 137 10289 65Q10201 -1 10069 -1Q9974 -1 9925 43Q9877 87 9877 190ZM9946 166Q9946 104 9979 82Q10004 66 10063 66Q10122 66 10167 75Q10212 84 10247 106Q10322 154 10322 255Q10322 315 10290 353Q10255 394 10198 394Q10159 387 10119 379Q10080 371 10045 348Q9969 299 9946 166ZM10832 105Q10873 122 10912 136Q10951 150 10986 150Q11022 150 11022 128Q11022 123 11019 112Q11017 102 10992 87Q10968 73 10932 60Q10897 47 10855 36Q10813 25 10773 17Q10690 0 10655 0Q10620 0 10579 8Q10539 16 10504 34Q10423 76 10423 158Q10423 164 10423 182Q10423 200 10438 233Q10453 267 10483 300Q10513 334 10553 362Q10637 422 10729 440Q10761 447 10782 447Q10804 447 10818 446Q10832 446 10847 444Q10862 443 10873 437Q10899 424 10899 386Q10899 362 10865 339Q10856 333 10849 328Q10844 351 10836 367Q10828 383 10801 383Q10683 358 10598 308Q10502 251 10502 188Q10502 181 10503 173Q10503 109 10552 82Q10589 62 10647 62Q10706 62 10749 75Q10792 89 10832 105ZM11175 182L11180 95Q11180 15 11142 -2Q11134 -5 11123 -5Q11112 -5 11097 0L11098 374Q11098 455 11088 536Q11079 618 11079 699Q11079 731 11113 731L11121 731Q11128 731 11130 730Q11145 668 11150 580Q11161 385 11170 318Q11187 327 11246 369Q11305 411 11341 436Q11377 462 11409 484Q11484 533 11503 533Q11519 533 11528 514Q11478 451 11367 374Q11322 343 11277 312Q11233 282 11196 249Q11263 231 11323 211Q11383 192 11439 176Q11568 138 11661 133Q11661 106 11656 98Q11647 84 11619 82L11611 82Q11550 99 11449 120Q11250 161 11175 182Z" fill="#ffffff" style=""></path></g></g><g transform="matrix(1,0,0,1,2261.5,1454.2)"><g transform="matrix(1,0,0,-1,0,0)"><path d="M522 555Q457 619 378 619Q303 619 234 562Q147 490 114 376Q102 335 102 308Q102 281 104 266Q104 167 171 114Q234 65 332 65Q466 76 589 168Q623 194 661 218Q675 218 689 214Q704 210 704 191Q605 105 537 67Q411 -1 309 -1Q302 -1 296 -1Q185 -1 106 68Q22 141 22 250Q22 332 51 407Q81 482 132 539Q184 597 254 631Q325 665 406 665Q475 665 496 646Q522 623 522 555ZM777 190Q777 308 879 380Q960 437 1074 449Q1080 449 1102 449Q1124 449 1161 436Q1243 408 1273 337Q1285 309 1285 289Q1285 270 1284 262Q1284 137 1189 65Q1101 -1 969 -1Q874 -1 825 43Q777 87 777 190ZM846 166Q846 104 879 82Q904 66 963 66Q1022 66 1067 75Q1112 84 1147 106Q1222 154 1222 255Q1222 315 1190 353Q1155 394 1098 394Q1059 387 1019 379Q980 371 945 348Q869 299 846 166ZM1411 16Q1370 -1 1356 -1Q1343 -1 1338 2Q1333 5 1327 16Q1327 49 1329 99Q1332 149 1334 206Q1336 263 1336 321Q1336 379 1330 427Q1330 459 1373 459Q1383 459 1388 423Q1394 387 1396 367Q1399 347 1401 338Q1427 385 1504 412Q1545 425 1581 425Q1617 425 1644 416Q1672 408 1691 385Q1711 363 1711 326Q1737 375 1828 414Q1911 451 1977 451Q2072 451 2070 379L2091 7Q2091 2 2062 0Q2006 -4 2006 10Q2005 30 2005 50L2010 211Q2010 324 1988 390Q1922 385 1886 368Q1851 352 1824 327Q1797 303 1776 262Q1729 170 1729 18Q1723 -3 1690 -3Q1668 -3 1654 4Q1640 12 1643 18Q1662 124 1662 183Q1662 230 1652 272Q1643 315 1629 370Q1485 370 1435 255Q1413 204 1410 159Q1408 115 1408 83Q1408 52 1411 16ZM2221 401Q2357 448 2456 448Q2582 448 2624 382Q2643 351 2643 315Q2643 265 2611 212Q2580 159 2528 116Q2407 17 2234 -7Q2234 -18 2234 -43Q2235 -67 2235 -97Q2236 -127 2236 -161Q2237 -195 2238 -226Q2241 -303 2242 -314Q2244 -325 2244 -332Q2244 -357 2228 -370Q2212 -382 2186 -382Q2181 -382 2176 -382L2160 422Q2169 435 2184 434Q2199 433 2208 426Q2217 419 2221 401ZM2513 366Q2480 383 2442 383Q2405 383 2368 376Q2284 360 2244 305Q2226 279 2226 241Q2226 237 2226 233L2226 60Q2432 106 2518 188Q2568 235 2568 285Q2568 338 2513 366ZM3088 166Q3013 48 2888 20Q2859 14 2835 14Q2812 14 2796 14Q2781 15 2762 19Q2743 23 2727 32Q2690 53 2690 91Q2686 109 2686 131Q2686 154 2696 191Q2706 228 2732 271Q2759 314 2797 350Q2876 426 2968 448Q2995 454 3017 454Q3040 454 3058 451Q3116 451 3136 372Q3149 322 3151 232Q3154 143 3156 94Q3159 46 3169 6L3110 6Q3106 33 3104 54Q3102 75 3100 93Q3095 135 3088 166ZM3084 321Q3084 379 3027 379Q3020 380 3013 380Q2940 380 2859 310Q2821 278 2794 238Q2754 181 2754 136Q2754 77 2822 66Q2912 68 2994 148Q3029 183 3052 224Q3084 279 3084 321ZM3605 158L3606 219Q3606 338 3593 394Q3601 409 3569 409Q3535 409 3481 392Q3427 375 3393 358Q3312 319 3303 282L3303 10L3236 10Q3223 44 3223 201Q3223 341 3228 407Q3234 473 3237 482Q3263 499 3279 499Q3304 499 3304 440Q3304 417 3301 395Q3299 374 3299 366Q3461 485 3550 485Q3651 485 3665 322Q3671 265 3671 164L3670 85Q3670 41 3672 0Q3662 -6 3656 -6Q3653 -5 3643 -3Q3633 -1 3617 0Q3607 40 3606 81Q3605 123 3605 158ZM4243 434L3939 -377Q3918 -424 3889 -424Q3875 -424 3868 -412Q3862 -399 3868 -382Q3890 -289 3931 -170Q3973 -51 3987 -10Q3952 25 3877 130Q3723 346 3723 367Q3723 368 3724 369L3762 407Q3841 334 3968 159Q4000 115 4019 85Q4040 127 4052 157Q4064 188 4071 206Q4079 225 4092 256Q4126 339 4186 467Q4195 471 4205 471Q4230 471 4241 458Q4245 453 4245 446Q4245 440 4243 434ZM5278 615L5281 353Q5281 49 5256 -3L5183 3Q5128 98 4998 270Q4947 338 4896 405Q4846 472 4804 538Q4784 449 4784 182Q4784 80 4780 10Q4761 -8 4738 -8Q4716 -8 4707 -4Q4698 1 4698 11Q4698 22 4700 44Q4703 67 4706 120Q4710 173 4713 232Q4721 386 4721 497Q4721 609 4719 681Q4741 701 4753 710Q4765 719 4780 709Q4795 700 4818 668Q4842 637 4885 575Q5032 366 5174 183L5193 681Q5204 701 5215 708Q5226 716 5244 716Q5279 716 5279 652L5278 615ZM5735 166Q5660 48 5535 20Q5506 14 5482 14Q5459 14 5443 14Q5428 15 5409 19Q5390 23 5374 32Q5337 53 5337 91Q5333 109 5333 131Q5333 154 5343 191Q5353 228 5379 271Q5406 314 5444 350Q5523 426 5615 448Q5642 454 5664 454Q5687 454 5705 451Q5763 451 5783 372Q5796 322 5798 232Q5801 143 5803 94Q5806 46 5816 6L5757 6Q5753 33 5751 54Q5749 75 5747 93Q5742 135 5735 166ZM5731 321Q5731 379 5674 379Q5667 380 5660 380Q5587 380 5506 310Q5468 278 5441 238Q5401 181 5401 136Q5401 77 5469 66Q5559 68 5641 148Q5676 183 5699 224Q5731 279 5731 321ZM5946 16Q5905 -1 5891 -1Q5878 -1 5873 2Q5868 5 5862 16Q5862 49 5864 99Q5867 149 5869 206Q5871 263 5871 321Q5871 379 5865 427Q5865 459 5908 459Q5918 459 5923 423Q5929 387 5931 367Q5934 347 5936 338Q5962 385 6039 412Q6080 425 6116 425Q6152 425 6179 416Q6207 408 6226 385Q6246 363 6246 326Q6272 375 6363 414Q6446 451 6512 451Q6607 451 6605 379L6626 7Q6626 2 6597 0Q6541 -4 6541 10Q6540 30 6540 50L6545 211Q6545 324 6523 390Q6457 385 6421 368Q6386 352 6359 327Q6332 303 6311 262Q6264 170 6264 18Q6258 -3 6225 -3Q6203 -3 6189 4Q6175 12 6178 18Q6197 124 6197 183Q6197 230 6187 272Q6178 315 6164 370Q6020 370 5970 255Q5948 204 5945 159Q5943 115 5943 83Q5943 52 5946 16ZM6864 70Q6952 70 7129 150Q7140 150 7147 142Q7154 135 7154 125Q7114 57 7001 19Q6888 -19 6790 6Q6679 35 6655 131Q6653 150 6653 182Q6653 214 6669 266Q6686 319 6726 366Q6766 413 6820 440Q6874 467 6935 467Q6993 467 7065 427Q7099 408 7119 384Q7139 360 7139 335Q7139 328 7138 321Q7136 260 7079 244Q7054 237 7021 237L6877 243Q6805 243 6767 212Q6745 195 6736 161Q6761 70 6864 70ZM7042 379Q7020 395 6996 402Q6972 409 6956 409Q6940 409 6904 398Q6868 388 6840 375Q6771 343 6771 308Q6851 301 6891 301Q7002 301 7041 320Q7065 330 7065 345Q7065 363 7042 379Z" fill="#ffffff" style=""></path></g></g></g></svg>